# xmcd
#
# Track frame offsets: 
#        150
#        15927
#        27985
#        40515
#        57645
#        73275
#        94010
#        109032
#        120217
#        139295
#        157742
#        181355
#        198605
#        214722
#        230000
#        241970
#        261300
#
# Disc length: 3571 seconds
#
# Revision: 1
# Processed by: cddbd v1.5.2PL0 Copyright (c) Steve Scherf et al.
# Submitted via: ExactAudioCopy v0.95b4
#
DISCID=e90df111
DTITLE=Various Artist - Jazz and Dintorni vol.41 - Il Nuovo Brasile
DYEAR=1900
DGENRE=Jazz
TTITLE0=Gal Costa - Meu bem, meu mal
TTITLE1=Gilberto Gil - Expresso
TTITLE2=Joao Bosco - O bebado e o equilibrista
TTITLE3=Gal Costa - Baby
TTITLE4=Elis Regina - Canto de Ossanha
TTITLE5=Caetano Veloso - Vaca profana
TTITLE6=Maria Bethania - Calice
TTITLE7=Sergio Mendes - Oba là là
TTITLE8=Margareth Menezes - Uma historia de ifà (Eijgbo)
TTITLE9=Jorge Ben - Xica da Silva
TTITLE10=Gal Costa - Falsa Baiana
TTITLE11=Maria Bethania - Mel
TTITLE12=Gal Costa and Caetano Veloso - Que pena (Ele jà nao gosta mais 
TTITLE12=de mim)
TTITLE13=Gal Costa - Meu nome é Gal
TTITLE14=Sergio Mendes - Mas que nada
TTITLE15=Gal Costa - Divino meravilhoso
TTITLE16=Caetano Veloso - Superbacana
EXTD=
EXTT0=
EXTT1=
EXTT2=
EXTT3=
EXTT4=
EXTT5=
EXTT6=
EXTT7=
EXTT8=
EXTT9=
EXTT10=
EXTT11=
EXTT12=
EXTT13=
EXTT14=
EXTT15=
EXTT16=
PLAYORDER=
